<mxfile host="65bd71144e">
    <diagram id="86OEjIF5bJoOTHSKxxui" name="Page-1">
        <mxGraphModel dx="2062" dy="3951" grid="1" gridSize="10" guides="1" tooltips="1" connect="1" arrows="1" fold="1" page="1" pageScale="1" pageWidth="850" pageHeight="1100" math="0" shadow="0">
            <root>
                <mxCell id="0"/>
                <mxCell id="1" parent="0"/>
                <mxCell id="304" value="" style="whiteSpace=wrap;html=1;aspect=fixed;" vertex="1" parent="1">
                    <mxGeometry x="30" y="-280" width="1230" height="1230" as="geometry"/>
                </mxCell>
                <mxCell id="221" value="Bệnh nhân" style="rounded=0;whiteSpace=wrap;html=1;" vertex="1" parent="1">
                    <mxGeometry x="130" y="120" width="120" height="60" as="geometry"/>
                </mxCell>
                <mxCell id="222" value="" style="group" vertex="1" connectable="0" parent="1">
                    <mxGeometry x="360" y="210" width="115.55555555555554" height="115.55555555555554" as="geometry"/>
                </mxCell>
                <mxCell id="223" value="kiểm tra hồ sơ bệnh nhân" style="ellipse;whiteSpace=wrap;html=1;aspect=fixed;" vertex="1" parent="222">
                    <mxGeometry width="115.55555555555556" height="115.55555555555556" as="geometry"/>
                </mxCell>
                <mxCell id="224" value="" style="endArrow=none;html=1;" edge="1" parent="222">
                    <mxGeometry width="50" height="50" relative="1" as="geometry">
                        <mxPoint x="2.2799999999999727" y="40" as="sourcePoint"/>
                        <mxPoint x="113.27999999999997" y="40" as="targetPoint"/>
                    </mxGeometry>
                </mxCell>
                <mxCell id="225" value="1" style="text;strokeColor=none;fillColor=none;align=center;verticalAlign=middle;spacingLeft=4;spacingRight=4;overflow=hidden;points=[[0,0.5],[1,0.5]];portConstraint=eastwest;rotatable=0;whiteSpace=wrap;html=1;" vertex="1" parent="222">
                    <mxGeometry x="13.330000000000041" width="88.88888888888889" height="33.75" as="geometry"/>
                </mxCell>
                <mxCell id="226" value="" style="curved=1;endArrow=classic;html=1;exitX=0.75;exitY=1;exitDx=0;exitDy=0;entryX=0;entryY=0.5;entryDx=0;entryDy=0;" edge="1" parent="1" source="221" target="223">
                    <mxGeometry width="50" height="50" relative="1" as="geometry">
                        <mxPoint x="250" y="194.72" as="sourcePoint"/>
                        <mxPoint x="361.61777777777775" y="325.55555555555566" as="targetPoint"/>
                        <Array as="points">
                            <mxPoint x="320" y="254.72"/>
                        </Array>
                    </mxGeometry>
                </mxCell>
                <mxCell id="228" value="hồ sơ" style="text;html=1;align=center;verticalAlign=middle;whiteSpace=wrap;rounded=0;rotation=34;" vertex="1" parent="1">
                    <mxGeometry x="230" y="206" width="120" height="30" as="geometry"/>
                </mxCell>
                <mxCell id="229" value="" style="group" vertex="1" connectable="0" parent="1">
                    <mxGeometry x="240" y="430" width="115.55555555555554" height="115.55555555555554" as="geometry"/>
                </mxCell>
                <mxCell id="230" value="lập hồ sơ bệnh nhân" style="ellipse;whiteSpace=wrap;html=1;aspect=fixed;" vertex="1" parent="229">
                    <mxGeometry width="115.55555555555556" height="115.55555555555556" as="geometry"/>
                </mxCell>
                <mxCell id="231" value="" style="endArrow=none;html=1;" edge="1" parent="229">
                    <mxGeometry width="50" height="50" relative="1" as="geometry">
                        <mxPoint x="2.2799999999999727" y="40" as="sourcePoint"/>
                        <mxPoint x="113.27999999999997" y="40" as="targetPoint"/>
                    </mxGeometry>
                </mxCell>
                <mxCell id="232" value="8" style="text;strokeColor=none;fillColor=none;align=center;verticalAlign=middle;spacingLeft=4;spacingRight=4;overflow=hidden;points=[[0,0.5],[1,0.5]];portConstraint=eastwest;rotatable=0;whiteSpace=wrap;html=1;" vertex="1" parent="229">
                    <mxGeometry x="13.330000000000041" width="88.88888888888889" height="33.75" as="geometry"/>
                </mxCell>
                <mxCell id="235" value="Thông tin bệnh nhân" style="shape=partialRectangle;whiteSpace=wrap;html=1;left=0;right=0;fillColor=none;" vertex="1" parent="1">
                    <mxGeometry x="260" y="670" width="180" height="40" as="geometry"/>
                </mxCell>
                <mxCell id="237" value="" style="curved=1;endArrow=classic;html=1;exitX=0.5;exitY=1;exitDx=0;exitDy=0;entryX=0.25;entryY=0;entryDx=0;entryDy=0;" edge="1" parent="1" source="230" target="235">
                    <mxGeometry width="50" height="50" relative="1" as="geometry">
                        <mxPoint x="350" y="530" as="sourcePoint"/>
                        <mxPoint x="400" y="480" as="targetPoint"/>
                        <Array as="points">
                            <mxPoint x="290" y="600"/>
                        </Array>
                    </mxGeometry>
                </mxCell>
                <mxCell id="240" value="" style="curved=1;endArrow=classic;html=1;exitX=0.75;exitY=0;exitDx=0;exitDy=0;entryX=0.5;entryY=1;entryDx=0;entryDy=0;" edge="1" parent="1" source="235" target="223">
                    <mxGeometry width="50" height="50" relative="1" as="geometry">
                        <mxPoint x="500" y="450" as="sourcePoint"/>
                        <mxPoint x="440" y="470" as="targetPoint"/>
                        <Array as="points">
                            <mxPoint x="440" y="380"/>
                        </Array>
                    </mxGeometry>
                </mxCell>
                <mxCell id="241" value="xác thực" style="text;html=1;align=center;verticalAlign=middle;whiteSpace=wrap;rounded=0;rotation=96;" vertex="1" parent="1">
                    <mxGeometry x="395" y="490" width="60" height="30" as="geometry"/>
                </mxCell>
                <mxCell id="242" value="" style="curved=1;endArrow=classic;html=1;exitX=0;exitY=1;exitDx=0;exitDy=0;entryX=1;entryY=0.5;entryDx=0;entryDy=0;" edge="1" parent="1" source="223" target="230">
                    <mxGeometry width="50" height="50" relative="1" as="geometry">
                        <mxPoint x="390" y="520" as="sourcePoint"/>
                        <mxPoint x="440" y="470" as="targetPoint"/>
                        <Array as="points">
                            <mxPoint x="390" y="470"/>
                        </Array>
                    </mxGeometry>
                </mxCell>
                <mxCell id="243" value="chưa có hồ sơ" style="text;html=1;align=center;verticalAlign=middle;whiteSpace=wrap;rounded=0;rotation=-91;" vertex="1" parent="1">
                    <mxGeometry x="326" y="360" width="90" height="30" as="geometry"/>
                </mxCell>
                <mxCell id="244" value="" style="curved=1;endArrow=classic;html=1;exitX=0.966;exitY=0.664;exitDx=0;exitDy=0;exitPerimeter=0;entryX=0;entryY=0.5;entryDx=0;entryDy=0;" edge="1" parent="1" source="223" target="246">
                    <mxGeometry width="50" height="50" relative="1" as="geometry">
                        <mxPoint x="490" y="310" as="sourcePoint"/>
                        <mxPoint x="670" y="287" as="targetPoint"/>
                        <Array as="points">
                            <mxPoint x="570" y="320"/>
                        </Array>
                    </mxGeometry>
                </mxCell>
                <mxCell id="245" value="" style="group" vertex="1" connectable="0" parent="1">
                    <mxGeometry x="670" y="230" width="115.55555555555554" height="115.55555555555554" as="geometry"/>
                </mxCell>
                <mxCell id="246" value="đóng tiền" style="ellipse;whiteSpace=wrap;html=1;aspect=fixed;" vertex="1" parent="245">
                    <mxGeometry width="115.55555555555556" height="115.55555555555556" as="geometry"/>
                </mxCell>
                <mxCell id="247" value="" style="endArrow=none;html=1;" edge="1" parent="245">
                    <mxGeometry width="50" height="50" relative="1" as="geometry">
                        <mxPoint x="2.2799999999999727" y="40" as="sourcePoint"/>
                        <mxPoint x="113.27999999999997" y="40" as="targetPoint"/>
                    </mxGeometry>
                </mxCell>
                <mxCell id="248" value="2" style="text;strokeColor=none;fillColor=none;align=center;verticalAlign=middle;spacingLeft=4;spacingRight=4;overflow=hidden;points=[[0,0.5],[1,0.5]];portConstraint=eastwest;rotatable=0;whiteSpace=wrap;html=1;" vertex="1" parent="245">
                    <mxGeometry x="13.330000000000041" width="88.88888888888889" height="33.75" as="geometry"/>
                </mxCell>
                <mxCell id="254" value="ngân khố" style="shape=partialRectangle;whiteSpace=wrap;html=1;left=0;right=0;fillColor=none;" vertex="1" parent="1">
                    <mxGeometry x="605.56" y="410" width="180" height="40" as="geometry"/>
                </mxCell>
                <mxCell id="255" value="" style="curved=1;endArrow=classic;html=1;entryX=0.5;entryY=0;entryDx=0;entryDy=0;exitX=0.5;exitY=1;exitDx=0;exitDy=0;" edge="1" parent="1" source="246" target="254">
                    <mxGeometry width="50" height="50" relative="1" as="geometry">
                        <mxPoint x="730" y="350" as="sourcePoint"/>
                        <mxPoint x="720" y="310" as="targetPoint"/>
                        <Array as="points">
                            <mxPoint x="720" y="380"/>
                        </Array>
                    </mxGeometry>
                </mxCell>
                <mxCell id="256" value="" style="curved=1;endArrow=classic;html=1;exitX=0;exitY=0.5;exitDx=0;exitDy=0;entryX=1;entryY=0.5;entryDx=0;entryDy=0;" edge="1" parent="1" source="248" target="221">
                    <mxGeometry width="50" height="50" relative="1" as="geometry">
                        <mxPoint x="653.3299999999999" y="96.87499999999989" as="sourcePoint"/>
                        <mxPoint x="590" y="40" as="targetPoint"/>
                        <Array as="points">
                            <mxPoint x="400" y="90"/>
                        </Array>
                    </mxGeometry>
                </mxCell>
                <mxCell id="257" value="" style="group" vertex="1" connectable="0" parent="1">
                    <mxGeometry x="840" y="50" width="115.55555555555554" height="115.55555555555554" as="geometry"/>
                </mxCell>
                <mxCell id="258" value="lập hồ sơ bệnh án" style="ellipse;whiteSpace=wrap;html=1;aspect=fixed;" vertex="1" parent="257">
                    <mxGeometry width="115.55555555555556" height="115.55555555555556" as="geometry"/>
                </mxCell>
                <mxCell id="259" value="" style="endArrow=none;html=1;" edge="1" parent="257">
                    <mxGeometry width="50" height="50" relative="1" as="geometry">
                        <mxPoint x="2.2799999999999727" y="40" as="sourcePoint"/>
                        <mxPoint x="113.27999999999997" y="40" as="targetPoint"/>
                    </mxGeometry>
                </mxCell>
                <mxCell id="260" value="3" style="text;strokeColor=none;fillColor=none;align=center;verticalAlign=middle;spacingLeft=4;spacingRight=4;overflow=hidden;points=[[0,0.5],[1,0.5]];portConstraint=eastwest;rotatable=0;whiteSpace=wrap;html=1;" vertex="1" parent="257">
                    <mxGeometry x="13.330000000000041" width="88.88888888888889" height="33.75" as="geometry"/>
                </mxCell>
                <mxCell id="263" value="" style="curved=1;endArrow=classic;html=1;exitX=1;exitY=0.5;exitDx=0;exitDy=0;entryX=0;entryY=1;entryDx=0;entryDy=0;" edge="1" parent="1" source="246" target="258">
                    <mxGeometry width="50" height="50" relative="1" as="geometry">
                        <mxPoint x="738.632836246333" y="178.6328362463329" as="sourcePoint"/>
                        <mxPoint x="770" y="160" as="targetPoint"/>
                        <Array as="points">
                            <mxPoint x="850" y="220"/>
                        </Array>
                    </mxGeometry>
                </mxCell>
                <mxCell id="264" value="STT &amp;amp; Chuyên Khoa" style="text;html=1;align=center;verticalAlign=middle;whiteSpace=wrap;rounded=0;rotation=-85;" vertex="1" parent="1">
                    <mxGeometry x="890" width="140" height="30" as="geometry"/>
                </mxCell>
                <mxCell id="265" value="" style="group" vertex="1" connectable="0" parent="1">
                    <mxGeometry x="1040" y="50" width="115.55555555555554" height="115.55555555555554" as="geometry"/>
                </mxCell>
                <mxCell id="266" value="lập phiếu yêu cầu thực hiên dịch vụ" style="ellipse;whiteSpace=wrap;html=1;aspect=fixed;" vertex="1" parent="265">
                    <mxGeometry width="115.55555555555556" height="115.55555555555556" as="geometry"/>
                </mxCell>
                <mxCell id="267" value="" style="endArrow=none;html=1;" edge="1" parent="265">
                    <mxGeometry width="50" height="50" relative="1" as="geometry">
                        <mxPoint x="2.2799999999999727" y="40" as="sourcePoint"/>
                        <mxPoint x="113.27999999999997" y="40" as="targetPoint"/>
                    </mxGeometry>
                </mxCell>
                <mxCell id="268" value="4" style="text;strokeColor=none;fillColor=none;align=center;verticalAlign=middle;spacingLeft=4;spacingRight=4;overflow=hidden;points=[[0,0.5],[1,0.5]];portConstraint=eastwest;rotatable=0;whiteSpace=wrap;html=1;" vertex="1" parent="265">
                    <mxGeometry x="13.330000000000041" width="88.88888888888889" height="33.75" as="geometry"/>
                </mxCell>
                <mxCell id="269" value="Hoá Đơn" style="text;html=1;align=center;verticalAlign=middle;whiteSpace=wrap;rounded=0;rotation=17;" vertex="1" parent="1">
                    <mxGeometry x="449.56" y="133" width="60" height="30" as="geometry"/>
                </mxCell>
                <mxCell id="270" value="thông tin bệnh nhân" style="text;html=1;align=center;verticalAlign=middle;whiteSpace=wrap;rounded=0;rotation=-90;" vertex="1" parent="1">
                    <mxGeometry x="230" y="590" width="110" height="30" as="geometry"/>
                </mxCell>
                <mxCell id="272" value="dịch vụ" style="text;html=1;align=center;verticalAlign=middle;whiteSpace=wrap;rounded=0;rotation=90;" vertex="1" parent="1">
                    <mxGeometry x="999" y="-10.000000000000028" width="60" height="30" as="geometry"/>
                </mxCell>
                <mxCell id="273" value="" style="curved=1;endArrow=classic;html=1;exitX=0.75;exitY=1;exitDx=0;exitDy=0;entryX=0;entryY=0.5;entryDx=0;entryDy=0;" edge="1" parent="1" source="275" target="266">
                    <mxGeometry width="50" height="50" relative="1" as="geometry">
                        <mxPoint x="980" y="140" as="sourcePoint"/>
                        <mxPoint x="1030" y="90" as="targetPoint"/>
                        <Array as="points">
                            <mxPoint x="1000" y="100"/>
                        </Array>
                    </mxGeometry>
                </mxCell>
                <mxCell id="275" value="bác sĩ" style="rounded=0;whiteSpace=wrap;html=1;" vertex="1" parent="1">
                    <mxGeometry x="939" y="-140" width="120" height="60" as="geometry"/>
                </mxCell>
                <mxCell id="276" value="" style="curved=1;endArrow=classic;html=1;exitX=1;exitY=0.5;exitDx=0;exitDy=0;entryX=0.25;entryY=1;entryDx=0;entryDy=0;" edge="1" parent="1" source="258" target="275">
                    <mxGeometry width="50" height="50" relative="1" as="geometry">
                        <mxPoint x="910" y="240" as="sourcePoint"/>
                        <mxPoint x="960" y="190" as="targetPoint"/>
                        <Array as="points">
                            <mxPoint x="990" y="30"/>
                        </Array>
                    </mxGeometry>
                </mxCell>
                <mxCell id="277" value="đã lập hồ sơ" style="text;html=1;align=center;verticalAlign=middle;whiteSpace=wrap;rounded=0;" vertex="1" parent="1">
                    <mxGeometry x="540" y="300" width="70" height="30" as="geometry"/>
                </mxCell>
                <mxCell id="278" value="thông tin bệnh" style="text;html=1;align=center;verticalAlign=middle;whiteSpace=wrap;rounded=0;rotation=-60;" vertex="1" parent="1">
                    <mxGeometry x="780" y="207" width="80" height="30" as="geometry"/>
                </mxCell>
                <mxCell id="279" value="" style="curved=1;endArrow=classic;html=1;exitX=0.5;exitY=1;exitDx=0;exitDy=0;entryX=1;entryY=0.5;entryDx=0;entryDy=0;" edge="1" parent="1" source="266" target="283">
                    <mxGeometry width="50" height="50" relative="1" as="geometry">
                        <mxPoint x="770" y="220" as="sourcePoint"/>
                        <mxPoint x="820" y="170" as="targetPoint"/>
                        <Array as="points">
                            <mxPoint x="1130" y="260"/>
                        </Array>
                    </mxGeometry>
                </mxCell>
                <mxCell id="281" value="thông tin dịch vụ" style="text;html=1;align=center;verticalAlign=middle;whiteSpace=wrap;rounded=0;rotation=-84;" vertex="1" parent="1">
                    <mxGeometry x="1040" y="230" width="100" height="30" as="geometry"/>
                </mxCell>
                <mxCell id="282" value="" style="group" vertex="1" connectable="0" parent="1">
                    <mxGeometry x="940" y="300" width="115.55555555555554" height="115.55555555555554" as="geometry"/>
                </mxCell>
                <mxCell id="283" value="đóng tiền" style="ellipse;whiteSpace=wrap;html=1;aspect=fixed;" vertex="1" parent="282">
                    <mxGeometry width="115.55555555555556" height="115.55555555555556" as="geometry"/>
                </mxCell>
                <mxCell id="284" value="" style="endArrow=none;html=1;" edge="1" parent="282">
                    <mxGeometry width="50" height="50" relative="1" as="geometry">
                        <mxPoint x="2.2799999999999727" y="40" as="sourcePoint"/>
                        <mxPoint x="113.27999999999997" y="40" as="targetPoint"/>
                    </mxGeometry>
                </mxCell>
                <mxCell id="285" value="5" style="text;strokeColor=none;fillColor=none;align=center;verticalAlign=middle;spacingLeft=4;spacingRight=4;overflow=hidden;points=[[0,0.5],[1,0.5]];portConstraint=eastwest;rotatable=0;whiteSpace=wrap;html=1;" vertex="1" parent="282">
                    <mxGeometry x="13.330000000000041" width="88.88888888888889" height="33.75" as="geometry"/>
                </mxCell>
                <mxCell id="286" value="" style="curved=1;endArrow=classic;html=1;exitX=0;exitY=1;exitDx=0;exitDy=0;entryX=1;entryY=0.5;entryDx=0;entryDy=0;" edge="1" parent="1" source="283" target="292">
                    <mxGeometry width="50" height="50" relative="1" as="geometry">
                        <mxPoint x="940" y="340" as="sourcePoint"/>
                        <mxPoint x="770" y="560" as="targetPoint"/>
                        <Array as="points">
                            <mxPoint x="910" y="460"/>
                        </Array>
                    </mxGeometry>
                </mxCell>
                <mxCell id="287" value="phiếu yêu cầu thực hiện" style="text;html=1;align=center;verticalAlign=middle;whiteSpace=wrap;rounded=0;rotation=-39;" vertex="1" parent="1">
                    <mxGeometry x="770" y="472.78" width="160" height="30" as="geometry"/>
                </mxCell>
                <mxCell id="288" value="hoá đơn" style="text;html=1;align=center;verticalAlign=middle;whiteSpace=wrap;rounded=0;rotation=-40;" vertex="1" parent="1">
                    <mxGeometry x="860" y="480" width="60" height="30" as="geometry"/>
                </mxCell>
                <mxCell id="289" value="" style="group" vertex="1" connectable="0" parent="1">
                    <mxGeometry x="664.44" y="545.56" width="115.55555555555554" height="115.55555555555554" as="geometry"/>
                </mxCell>
                <mxCell id="290" value="tiến hành các dịch vụ" style="ellipse;whiteSpace=wrap;html=1;aspect=fixed;" vertex="1" parent="289">
                    <mxGeometry width="115.55555555555556" height="115.55555555555556" as="geometry"/>
                </mxCell>
                <mxCell id="291" value="" style="endArrow=none;html=1;" edge="1" parent="289">
                    <mxGeometry width="50" height="50" relative="1" as="geometry">
                        <mxPoint x="2.2799999999999727" y="40" as="sourcePoint"/>
                        <mxPoint x="113.27999999999997" y="40" as="targetPoint"/>
                    </mxGeometry>
                </mxCell>
                <mxCell id="292" value="6" style="text;strokeColor=none;fillColor=none;align=center;verticalAlign=middle;spacingLeft=4;spacingRight=4;overflow=hidden;points=[[0,0.5],[1,0.5]];portConstraint=eastwest;rotatable=0;whiteSpace=wrap;html=1;" vertex="1" parent="289">
                    <mxGeometry x="13.330000000000041" width="88.88888888888889" height="33.75" as="geometry"/>
                </mxCell>
                <mxCell id="293" value="" style="group" vertex="1" connectable="0" parent="1">
                    <mxGeometry x="670" y="-60" width="115.55555555555554" height="115.55555555555554" as="geometry"/>
                </mxCell>
                <mxCell id="294" value="cập nhật bệnh án" style="ellipse;whiteSpace=wrap;html=1;aspect=fixed;" vertex="1" parent="293">
                    <mxGeometry width="115.55555555555556" height="115.55555555555556" as="geometry"/>
                </mxCell>
                <mxCell id="295" value="" style="endArrow=none;html=1;" edge="1" parent="293">
                    <mxGeometry width="50" height="50" relative="1" as="geometry">
                        <mxPoint x="2.2799999999999727" y="40" as="sourcePoint"/>
                        <mxPoint x="113.27999999999997" y="40" as="targetPoint"/>
                    </mxGeometry>
                </mxCell>
                <mxCell id="296" value="7" style="text;strokeColor=none;fillColor=none;align=center;verticalAlign=middle;spacingLeft=4;spacingRight=4;overflow=hidden;points=[[0,0.5],[1,0.5]];portConstraint=eastwest;rotatable=0;whiteSpace=wrap;html=1;" vertex="1" parent="293">
                    <mxGeometry x="13.330000000000041" width="88.88888888888889" height="33.75" as="geometry"/>
                </mxCell>
                <mxCell id="297" value="" style="curved=1;endArrow=classic;html=1;exitX=0;exitY=1;exitDx=0;exitDy=0;entryX=0.75;entryY=0;entryDx=0;entryDy=0;" edge="1" parent="1" source="290" target="275">
                    <mxGeometry width="50" height="50" relative="1" as="geometry">
                        <mxPoint x="520" y="460" as="sourcePoint"/>
                        <mxPoint x="570" y="410" as="targetPoint"/>
                        <Array as="points">
                            <mxPoint x="660" y="690"/>
                            <mxPoint x="790" y="760"/>
                            <mxPoint x="1260" y="330"/>
                            <mxPoint x="1050" y="-330"/>
                        </Array>
                    </mxGeometry>
                </mxCell>
                <mxCell id="298" value="kết quả dịch vụ" style="text;html=1;align=center;verticalAlign=middle;whiteSpace=wrap;rounded=0;rotation=-46;" vertex="1" parent="1">
                    <mxGeometry x="970" y="502.78" width="100" height="30" as="geometry"/>
                </mxCell>
                <mxCell id="299" value="" style="curved=1;endArrow=classic;html=1;exitX=0.277;exitY=0.932;exitDx=0;exitDy=0;entryX=0.935;entryY=0.255;entryDx=0;entryDy=0;exitPerimeter=0;entryPerimeter=0;" edge="1" parent="1" source="283" target="290">
                    <mxGeometry width="50" height="50" relative="1" as="geometry">
                        <mxPoint x="967" y="409" as="sourcePoint"/>
                        <mxPoint x="777" y="572" as="targetPoint"/>
                        <Array as="points">
                            <mxPoint x="920" y="470"/>
                        </Array>
                    </mxGeometry>
                </mxCell>
                <mxCell id="300" value="" style="curved=1;endArrow=classic;html=1;exitX=0;exitY=1;exitDx=0;exitDy=0;entryX=0;entryY=0.5;entryDx=0;entryDy=0;" edge="1" parent="1" source="294" target="235">
                    <mxGeometry width="50" height="50" relative="1" as="geometry">
                        <mxPoint x="690" y="-200" as="sourcePoint"/>
                        <mxPoint x="740" y="-250" as="targetPoint"/>
                        <Array as="points">
                            <mxPoint x="220" y="-80"/>
                            <mxPoint x="-10" y="110"/>
                        </Array>
                    </mxGeometry>
                </mxCell>
                <mxCell id="301" value="" style="curved=1;endArrow=classic;html=1;exitX=0.25;exitY=0;exitDx=0;exitDy=0;entryX=1;entryY=0.5;entryDx=0;entryDy=0;" edge="1" parent="1" source="275" target="296">
                    <mxGeometry width="50" height="50" relative="1" as="geometry">
                        <mxPoint x="860" y="-130" as="sourcePoint"/>
                        <mxPoint x="910" y="-180" as="targetPoint"/>
                        <Array as="points">
                            <mxPoint x="840" y="-200"/>
                        </Array>
                    </mxGeometry>
                </mxCell>
                <mxCell id="302" value="thông tin bệnh án" style="text;html=1;align=center;verticalAlign=middle;whiteSpace=wrap;rounded=0;rotation=-30;" vertex="1" parent="1">
                    <mxGeometry x="800" y="-140" width="110" height="30" as="geometry"/>
                </mxCell>
                <mxCell id="303" value="thông tin xác thực" style="text;html=1;align=center;verticalAlign=middle;whiteSpace=wrap;rounded=0;rotation=5;" vertex="1" parent="1">
                    <mxGeometry x="330" y="-17.22" width="100.44" height="30" as="geometry"/>
                </mxCell>
            </root>
        </mxGraphModel>
    </diagram>
</mxfile>